<mxfile host="app.diagrams.net" modified="2024-03-13T13:20:19.719Z" agent="Mozilla/5.0 (Windows NT 10.0; Win64; x64) AppleWebKit/537.36 (KHTML, like Gecko) Chrome/122.0.0.0 Safari/537.36" etag="Xi5uP7NNI3Ji2QuoRDYy" version="24.0.5" type="google">
  <diagram name="Page-1" id="rVkDdUYpYVMdd800wN2r">
    <mxGraphModel grid="1" page="1" gridSize="10" guides="1" tooltips="1" connect="1" arrows="1" fold="1" pageScale="1" pageWidth="827" pageHeight="1169" math="0" shadow="0">
      <root>
        <mxCell id="0" />
        <mxCell id="1" parent="0" />
        <mxCell id="mc_QEWwiL3FcUxrlVgAe-1" value="Products" style="swimlane;fontStyle=0;childLayout=stackLayout;horizontal=1;startSize=26;fillColor=none;horizontalStack=0;resizeParent=1;resizeParentMax=0;resizeLast=0;collapsible=1;marginBottom=0;whiteSpace=wrap;html=1;" vertex="1" parent="1">
          <mxGeometry x="1070" y="665" width="140" height="264" as="geometry" />
        </mxCell>
        <mxCell id="mc_QEWwiL3FcUxrlVgAe-2" value="product_id (clé primaire)" style="text;strokeColor=none;fillColor=none;align=left;verticalAlign=top;spacingLeft=4;spacingRight=4;overflow=hidden;rotatable=0;points=[[0,0.5],[1,0.5]];portConstraint=eastwest;whiteSpace=wrap;html=1;" vertex="1" parent="mc_QEWwiL3FcUxrlVgAe-1">
          <mxGeometry y="26" width="140" height="26" as="geometry" />
        </mxCell>
        <mxCell id="mc_QEWwiL3FcUxrlVgAe-3" value="name" style="text;strokeColor=none;fillColor=none;align=left;verticalAlign=top;spacingLeft=4;spacingRight=4;overflow=hidden;rotatable=0;points=[[0,0.5],[1,0.5]];portConstraint=eastwest;whiteSpace=wrap;html=1;" vertex="1" parent="mc_QEWwiL3FcUxrlVgAe-1">
          <mxGeometry y="52" width="140" height="26" as="geometry" />
        </mxCell>
        <mxCell id="mc_QEWwiL3FcUxrlVgAe-4" value="description" style="text;strokeColor=none;fillColor=none;align=left;verticalAlign=top;spacingLeft=4;spacingRight=4;overflow=hidden;rotatable=0;points=[[0,0.5],[1,0.5]];portConstraint=eastwest;whiteSpace=wrap;html=1;" vertex="1" parent="mc_QEWwiL3FcUxrlVgAe-1">
          <mxGeometry y="78" width="140" height="26" as="geometry" />
        </mxCell>
        <mxCell id="udjICKNET5VibKl9sjoU-52" value="price" style="text;strokeColor=none;fillColor=none;align=left;verticalAlign=top;spacingLeft=4;spacingRight=4;overflow=hidden;rotatable=0;points=[[0,0.5],[1,0.5]];portConstraint=eastwest;whiteSpace=wrap;html=1;" vertex="1" parent="mc_QEWwiL3FcUxrlVgAe-1">
          <mxGeometry y="104" width="140" height="26" as="geometry" />
        </mxCell>
        <mxCell id="udjICKNET5VibKl9sjoU-53" value="stock_quantity" style="text;strokeColor=none;fillColor=none;align=left;verticalAlign=top;spacingLeft=4;spacingRight=4;overflow=hidden;rotatable=0;points=[[0,0.5],[1,0.5]];portConstraint=eastwest;whiteSpace=wrap;html=1;" vertex="1" parent="mc_QEWwiL3FcUxrlVgAe-1">
          <mxGeometry y="130" width="140" height="26" as="geometry" />
        </mxCell>
        <mxCell id="udjICKNET5VibKl9sjoU-54" value="category_id (clé étrangère liée à la table ProductCategories)" style="text;strokeColor=none;fillColor=none;align=left;verticalAlign=top;spacingLeft=4;spacingRight=4;overflow=hidden;rotatable=0;points=[[0,0.5],[1,0.5]];portConstraint=eastwest;whiteSpace=wrap;html=1;" vertex="1" parent="mc_QEWwiL3FcUxrlVgAe-1">
          <mxGeometry y="156" width="140" height="54" as="geometry" />
        </mxCell>
        <mxCell id="udjICKNET5VibKl9sjoU-62" value="designer_id (clé étrangère liée à la table Designers)" style="text;strokeColor=none;fillColor=none;align=left;verticalAlign=top;spacingLeft=4;spacingRight=4;overflow=hidden;rotatable=0;points=[[0,0.5],[1,0.5]];portConstraint=eastwest;whiteSpace=wrap;html=1;" vertex="1" parent="mc_QEWwiL3FcUxrlVgAe-1">
          <mxGeometry y="210" width="140" height="54" as="geometry" />
        </mxCell>
        <mxCell id="mc_QEWwiL3FcUxrlVgAe-5" value="Users" style="swimlane;fontStyle=0;childLayout=stackLayout;horizontal=1;startSize=26;fillColor=none;horizontalStack=0;resizeParent=1;resizeParentMax=0;resizeLast=0;collapsible=1;marginBottom=0;whiteSpace=wrap;html=1;" vertex="1" parent="1">
          <mxGeometry x="570" y="110" width="140" height="286" as="geometry" />
        </mxCell>
        <mxCell id="mc_QEWwiL3FcUxrlVgAe-6" value="user_id (clé primaire)" style="text;strokeColor=none;fillColor=none;align=left;verticalAlign=top;spacingLeft=4;spacingRight=4;overflow=hidden;rotatable=0;points=[[0,0.5],[1,0.5]];portConstraint=eastwest;whiteSpace=wrap;html=1;" vertex="1" parent="mc_QEWwiL3FcUxrlVgAe-5">
          <mxGeometry y="26" width="140" height="26" as="geometry" />
        </mxCell>
        <mxCell id="mc_QEWwiL3FcUxrlVgAe-7" value="email" style="text;strokeColor=none;fillColor=none;align=left;verticalAlign=top;spacingLeft=4;spacingRight=4;overflow=hidden;rotatable=0;points=[[0,0.5],[1,0.5]];portConstraint=eastwest;whiteSpace=wrap;html=1;" vertex="1" parent="mc_QEWwiL3FcUxrlVgAe-5">
          <mxGeometry y="52" width="140" height="26" as="geometry" />
        </mxCell>
        <mxCell id="mc_QEWwiL3FcUxrlVgAe-8" value="password" style="text;strokeColor=none;fillColor=none;align=left;verticalAlign=top;spacingLeft=4;spacingRight=4;overflow=hidden;rotatable=0;points=[[0,0.5],[1,0.5]];portConstraint=eastwest;whiteSpace=wrap;html=1;" vertex="1" parent="mc_QEWwiL3FcUxrlVgAe-5">
          <mxGeometry y="78" width="140" height="26" as="geometry" />
        </mxCell>
        <mxCell id="udjICKNET5VibKl9sjoU-45" value="first_name" style="text;strokeColor=none;fillColor=none;align=left;verticalAlign=top;spacingLeft=4;spacingRight=4;overflow=hidden;rotatable=0;points=[[0,0.5],[1,0.5]];portConstraint=eastwest;whiteSpace=wrap;html=1;" vertex="1" parent="mc_QEWwiL3FcUxrlVgAe-5">
          <mxGeometry y="104" width="140" height="26" as="geometry" />
        </mxCell>
        <mxCell id="udjICKNET5VibKl9sjoU-46" value="last_name" style="text;strokeColor=none;fillColor=none;align=left;verticalAlign=top;spacingLeft=4;spacingRight=4;overflow=hidden;rotatable=0;points=[[0,0.5],[1,0.5]];portConstraint=eastwest;whiteSpace=wrap;html=1;" vertex="1" parent="mc_QEWwiL3FcUxrlVgAe-5">
          <mxGeometry y="130" width="140" height="26" as="geometry" />
        </mxCell>
        <mxCell id="udjICKNET5VibKl9sjoU-47" value="address" style="text;strokeColor=none;fillColor=none;align=left;verticalAlign=top;spacingLeft=4;spacingRight=4;overflow=hidden;rotatable=0;points=[[0,0.5],[1,0.5]];portConstraint=eastwest;whiteSpace=wrap;html=1;" vertex="1" parent="mc_QEWwiL3FcUxrlVgAe-5">
          <mxGeometry y="156" width="140" height="26" as="geometry" />
        </mxCell>
        <mxCell id="udjICKNET5VibKl9sjoU-50" value="city" style="text;strokeColor=none;fillColor=none;align=left;verticalAlign=top;spacingLeft=4;spacingRight=4;overflow=hidden;rotatable=0;points=[[0,0.5],[1,0.5]];portConstraint=eastwest;whiteSpace=wrap;html=1;" vertex="1" parent="mc_QEWwiL3FcUxrlVgAe-5">
          <mxGeometry y="182" width="140" height="26" as="geometry" />
        </mxCell>
        <mxCell id="udjICKNET5VibKl9sjoU-51" value="country" style="text;strokeColor=none;fillColor=none;align=left;verticalAlign=top;spacingLeft=4;spacingRight=4;overflow=hidden;rotatable=0;points=[[0,0.5],[1,0.5]];portConstraint=eastwest;whiteSpace=wrap;html=1;" vertex="1" parent="mc_QEWwiL3FcUxrlVgAe-5">
          <mxGeometry y="208" width="140" height="26" as="geometry" />
        </mxCell>
        <mxCell id="udjICKNET5VibKl9sjoU-48" value="phone_number" style="text;strokeColor=none;fillColor=none;align=left;verticalAlign=top;spacingLeft=4;spacingRight=4;overflow=hidden;rotatable=0;points=[[0,0.5],[1,0.5]];portConstraint=eastwest;whiteSpace=wrap;html=1;" vertex="1" parent="mc_QEWwiL3FcUxrlVgAe-5">
          <mxGeometry y="234" width="140" height="26" as="geometry" />
        </mxCell>
        <mxCell id="udjICKNET5VibKl9sjoU-49" value="registration_date" style="text;strokeColor=none;fillColor=none;align=left;verticalAlign=top;spacingLeft=4;spacingRight=4;overflow=hidden;rotatable=0;points=[[0,0.5],[1,0.5]];portConstraint=eastwest;whiteSpace=wrap;html=1;" vertex="1" parent="mc_QEWwiL3FcUxrlVgAe-5">
          <mxGeometry y="260" width="140" height="26" as="geometry" />
        </mxCell>
        <mxCell id="udjICKNET5VibKl9sjoU-1" value="ProductCategories" style="swimlane;fontStyle=0;childLayout=stackLayout;horizontal=1;startSize=26;fillColor=none;horizontalStack=0;resizeParent=1;resizeParentMax=0;resizeLast=0;collapsible=1;marginBottom=0;whiteSpace=wrap;html=1;" vertex="1" parent="1">
          <mxGeometry x="1250" y="920" width="140" height="96" as="geometry" />
        </mxCell>
        <mxCell id="udjICKNET5VibKl9sjoU-2" value="category_id (clé primaire)" style="text;strokeColor=none;fillColor=none;align=left;verticalAlign=top;spacingLeft=4;spacingRight=4;overflow=hidden;rotatable=0;points=[[0,0.5],[1,0.5]];portConstraint=eastwest;whiteSpace=wrap;html=1;" vertex="1" parent="udjICKNET5VibKl9sjoU-1">
          <mxGeometry y="26" width="140" height="44" as="geometry" />
        </mxCell>
        <mxCell id="udjICKNET5VibKl9sjoU-3" value="category_name" style="text;strokeColor=none;fillColor=none;align=left;verticalAlign=top;spacingLeft=4;spacingRight=4;overflow=hidden;rotatable=0;points=[[0,0.5],[1,0.5]];portConstraint=eastwest;whiteSpace=wrap;html=1;" vertex="1" parent="udjICKNET5VibKl9sjoU-1">
          <mxGeometry y="70" width="140" height="26" as="geometry" />
        </mxCell>
        <mxCell id="udjICKNET5VibKl9sjoU-5" value="Designers" style="swimlane;fontStyle=0;childLayout=stackLayout;horizontal=1;startSize=26;fillColor=none;horizontalStack=0;resizeParent=1;resizeParentMax=0;resizeLast=0;collapsible=1;marginBottom=0;whiteSpace=wrap;html=1;" vertex="1" parent="1">
          <mxGeometry x="900" y="960" width="140" height="122" as="geometry" />
        </mxCell>
        <mxCell id="udjICKNET5VibKl9sjoU-6" value="designer_id (clé primaire)" style="text;strokeColor=none;fillColor=none;align=left;verticalAlign=top;spacingLeft=4;spacingRight=4;overflow=hidden;rotatable=0;points=[[0,0.5],[1,0.5]];portConstraint=eastwest;whiteSpace=wrap;html=1;" vertex="1" parent="udjICKNET5VibKl9sjoU-5">
          <mxGeometry y="26" width="140" height="44" as="geometry" />
        </mxCell>
        <mxCell id="udjICKNET5VibKl9sjoU-7" value="designer_name" style="text;strokeColor=none;fillColor=none;align=left;verticalAlign=top;spacingLeft=4;spacingRight=4;overflow=hidden;rotatable=0;points=[[0,0.5],[1,0.5]];portConstraint=eastwest;whiteSpace=wrap;html=1;" vertex="1" parent="udjICKNET5VibKl9sjoU-5">
          <mxGeometry y="70" width="140" height="26" as="geometry" />
        </mxCell>
        <mxCell id="udjICKNET5VibKl9sjoU-8" value="description" style="text;strokeColor=none;fillColor=none;align=left;verticalAlign=top;spacingLeft=4;spacingRight=4;overflow=hidden;rotatable=0;points=[[0,0.5],[1,0.5]];portConstraint=eastwest;whiteSpace=wrap;html=1;" vertex="1" parent="udjICKNET5VibKl9sjoU-5">
          <mxGeometry y="96" width="140" height="26" as="geometry" />
        </mxCell>
        <mxCell id="udjICKNET5VibKl9sjoU-9" value="Orders" style="swimlane;fontStyle=0;childLayout=stackLayout;horizontal=1;startSize=26;fillColor=none;horizontalStack=0;resizeParent=1;resizeParentMax=0;resizeLast=0;collapsible=1;marginBottom=0;whiteSpace=wrap;html=1;" vertex="1" parent="1">
          <mxGeometry x="510" y="450" width="140" height="152" as="geometry" />
        </mxCell>
        <mxCell id="udjICKNET5VibKl9sjoU-10" value="order_id (clé primaire)" style="text;strokeColor=none;fillColor=none;align=left;verticalAlign=top;spacingLeft=4;spacingRight=4;overflow=hidden;rotatable=0;points=[[0,0.5],[1,0.5]];portConstraint=eastwest;whiteSpace=wrap;html=1;" vertex="1" parent="udjICKNET5VibKl9sjoU-9">
          <mxGeometry y="26" width="140" height="26" as="geometry" />
        </mxCell>
        <mxCell id="udjICKNET5VibKl9sjoU-11" value="user_id (clé étrangère liée à la table Users)" style="text;strokeColor=none;fillColor=none;align=left;verticalAlign=top;spacingLeft=4;spacingRight=4;overflow=hidden;rotatable=0;points=[[0,0.5],[1,0.5]];portConstraint=eastwest;whiteSpace=wrap;html=1;" vertex="1" parent="udjICKNET5VibKl9sjoU-9">
          <mxGeometry y="52" width="140" height="48" as="geometry" />
        </mxCell>
        <mxCell id="udjICKNET5VibKl9sjoU-12" value="order_date" style="text;strokeColor=none;fillColor=none;align=left;verticalAlign=top;spacingLeft=4;spacingRight=4;overflow=hidden;rotatable=0;points=[[0,0.5],[1,0.5]];portConstraint=eastwest;whiteSpace=wrap;html=1;" vertex="1" parent="udjICKNET5VibKl9sjoU-9">
          <mxGeometry y="100" width="140" height="26" as="geometry" />
        </mxCell>
        <mxCell id="udjICKNET5VibKl9sjoU-63" value="total_amount" style="text;strokeColor=none;fillColor=none;align=left;verticalAlign=top;spacingLeft=4;spacingRight=4;overflow=hidden;rotatable=0;points=[[0,0.5],[1,0.5]];portConstraint=eastwest;whiteSpace=wrap;html=1;" vertex="1" parent="udjICKNET5VibKl9sjoU-9">
          <mxGeometry y="126" width="140" height="26" as="geometry" />
        </mxCell>
        <mxCell id="udjICKNET5VibKl9sjoU-13" value="OrderDetails" style="swimlane;fontStyle=0;childLayout=stackLayout;horizontal=1;startSize=26;fillColor=none;horizontalStack=0;resizeParent=1;resizeParentMax=0;resizeLast=0;collapsible=1;marginBottom=0;whiteSpace=wrap;html=1;" vertex="1" parent="1">
          <mxGeometry x="610" y="660" width="140" height="232" as="geometry" />
        </mxCell>
        <mxCell id="udjICKNET5VibKl9sjoU-14" value="order_detail_id (clé primaire)" style="text;strokeColor=none;fillColor=none;align=left;verticalAlign=top;spacingLeft=4;spacingRight=4;overflow=hidden;rotatable=0;points=[[0,0.5],[1,0.5]];portConstraint=eastwest;whiteSpace=wrap;html=1;" vertex="1" parent="udjICKNET5VibKl9sjoU-13">
          <mxGeometry y="26" width="140" height="44" as="geometry" />
        </mxCell>
        <mxCell id="udjICKNET5VibKl9sjoU-15" value="order_id (clé étrangère liée à la table Orders)" style="text;strokeColor=none;fillColor=none;align=left;verticalAlign=top;spacingLeft=4;spacingRight=4;overflow=hidden;rotatable=0;points=[[0,0.5],[1,0.5]];portConstraint=eastwest;whiteSpace=wrap;html=1;" vertex="1" parent="udjICKNET5VibKl9sjoU-13">
          <mxGeometry y="70" width="140" height="50" as="geometry" />
        </mxCell>
        <mxCell id="udjICKNET5VibKl9sjoU-16" value="product_id (clé étrangère liée à la table Products)" style="text;strokeColor=none;fillColor=none;align=left;verticalAlign=top;spacingLeft=4;spacingRight=4;overflow=hidden;rotatable=0;points=[[0,0.5],[1,0.5]];portConstraint=eastwest;whiteSpace=wrap;html=1;" vertex="1" parent="udjICKNET5VibKl9sjoU-13">
          <mxGeometry y="120" width="140" height="60" as="geometry" />
        </mxCell>
        <mxCell id="udjICKNET5VibKl9sjoU-64" value="quantity" style="text;strokeColor=none;fillColor=none;align=left;verticalAlign=top;spacingLeft=4;spacingRight=4;overflow=hidden;rotatable=0;points=[[0,0.5],[1,0.5]];portConstraint=eastwest;whiteSpace=wrap;html=1;" vertex="1" parent="udjICKNET5VibKl9sjoU-13">
          <mxGeometry y="180" width="140" height="26" as="geometry" />
        </mxCell>
        <mxCell id="udjICKNET5VibKl9sjoU-65" value="unit_price" style="text;strokeColor=none;fillColor=none;align=left;verticalAlign=top;spacingLeft=4;spacingRight=4;overflow=hidden;rotatable=0;points=[[0,0.5],[1,0.5]];portConstraint=eastwest;whiteSpace=wrap;html=1;" vertex="1" parent="udjICKNET5VibKl9sjoU-13">
          <mxGeometry y="206" width="140" height="26" as="geometry" />
        </mxCell>
        <mxCell id="udjICKNET5VibKl9sjoU-17" value="Payments" style="swimlane;fontStyle=0;childLayout=stackLayout;horizontal=1;startSize=26;fillColor=none;horizontalStack=0;resizeParent=1;resizeParentMax=0;resizeLast=0;collapsible=1;marginBottom=0;whiteSpace=wrap;html=1;" vertex="1" parent="1">
          <mxGeometry x="260" y="330" width="140" height="198" as="geometry" />
        </mxCell>
        <mxCell id="udjICKNET5VibKl9sjoU-18" value="payment_id (clé primaire)" style="text;strokeColor=none;fillColor=none;align=left;verticalAlign=top;spacingLeft=4;spacingRight=4;overflow=hidden;rotatable=0;points=[[0,0.5],[1,0.5]];portConstraint=eastwest;whiteSpace=wrap;html=1;" vertex="1" parent="udjICKNET5VibKl9sjoU-17">
          <mxGeometry y="26" width="140" height="44" as="geometry" />
        </mxCell>
        <mxCell id="udjICKNET5VibKl9sjoU-19" value="order_id (clé étrangère liée à la table Orders)" style="text;strokeColor=none;fillColor=none;align=left;verticalAlign=top;spacingLeft=4;spacingRight=4;overflow=hidden;rotatable=0;points=[[0,0.5],[1,0.5]];portConstraint=eastwest;whiteSpace=wrap;html=1;" vertex="1" parent="udjICKNET5VibKl9sjoU-17">
          <mxGeometry y="70" width="140" height="50" as="geometry" />
        </mxCell>
        <mxCell id="udjICKNET5VibKl9sjoU-20" value="payment_date" style="text;strokeColor=none;fillColor=none;align=left;verticalAlign=top;spacingLeft=4;spacingRight=4;overflow=hidden;rotatable=0;points=[[0,0.5],[1,0.5]];portConstraint=eastwest;whiteSpace=wrap;html=1;" vertex="1" parent="udjICKNET5VibKl9sjoU-17">
          <mxGeometry y="120" width="140" height="26" as="geometry" />
        </mxCell>
        <mxCell id="udjICKNET5VibKl9sjoU-67" value="payment_method" style="text;strokeColor=none;fillColor=none;align=left;verticalAlign=top;spacingLeft=4;spacingRight=4;overflow=hidden;rotatable=0;points=[[0,0.5],[1,0.5]];portConstraint=eastwest;whiteSpace=wrap;html=1;" vertex="1" parent="udjICKNET5VibKl9sjoU-17">
          <mxGeometry y="146" width="140" height="26" as="geometry" />
        </mxCell>
        <mxCell id="udjICKNET5VibKl9sjoU-68" value="amount" style="text;strokeColor=none;fillColor=none;align=left;verticalAlign=top;spacingLeft=4;spacingRight=4;overflow=hidden;rotatable=0;points=[[0,0.5],[1,0.5]];portConstraint=eastwest;whiteSpace=wrap;html=1;" vertex="1" parent="udjICKNET5VibKl9sjoU-17">
          <mxGeometry y="172" width="140" height="26" as="geometry" />
        </mxCell>
        <mxCell id="udjICKNET5VibKl9sjoU-21" value="Cart" style="swimlane;fontStyle=0;childLayout=stackLayout;horizontal=1;startSize=26;fillColor=none;horizontalStack=0;resizeParent=1;resizeParentMax=0;resizeLast=0;collapsible=1;marginBottom=0;whiteSpace=wrap;html=1;" vertex="1" parent="1">
          <mxGeometry x="870" y="336" width="140" height="186" as="geometry" />
        </mxCell>
        <mxCell id="udjICKNET5VibKl9sjoU-22" value="cart_id (clé primaire)" style="text;strokeColor=none;fillColor=none;align=left;verticalAlign=top;spacingLeft=4;spacingRight=4;overflow=hidden;rotatable=0;points=[[0,0.5],[1,0.5]];portConstraint=eastwest;whiteSpace=wrap;html=1;" vertex="1" parent="udjICKNET5VibKl9sjoU-21">
          <mxGeometry y="26" width="140" height="26" as="geometry" />
        </mxCell>
        <mxCell id="udjICKNET5VibKl9sjoU-23" value="user_id (clé étrangère liée à la table Users)" style="text;strokeColor=none;fillColor=none;align=left;verticalAlign=top;spacingLeft=4;spacingRight=4;overflow=hidden;rotatable=0;points=[[0,0.5],[1,0.5]];portConstraint=eastwest;whiteSpace=wrap;html=1;" vertex="1" parent="udjICKNET5VibKl9sjoU-21">
          <mxGeometry y="52" width="140" height="48" as="geometry" />
        </mxCell>
        <mxCell id="udjICKNET5VibKl9sjoU-24" value="product_id (clé étrangère liée à la table Products)&lt;span style=&quot;&quot;&gt;&lt;span style=&quot;white-space: pre;&quot;&gt;&amp;nbsp;&amp;nbsp;&amp;nbsp;&amp;nbsp;&lt;/span&gt;&lt;/span&gt;" style="text;strokeColor=none;fillColor=none;align=left;verticalAlign=top;spacingLeft=4;spacingRight=4;overflow=hidden;rotatable=0;points=[[0,0.5],[1,0.5]];portConstraint=eastwest;whiteSpace=wrap;html=1;" vertex="1" parent="udjICKNET5VibKl9sjoU-21">
          <mxGeometry y="100" width="140" height="60" as="geometry" />
        </mxCell>
        <mxCell id="udjICKNET5VibKl9sjoU-69" value="quantity" style="text;strokeColor=none;fillColor=none;align=left;verticalAlign=top;spacingLeft=4;spacingRight=4;overflow=hidden;rotatable=0;points=[[0,0.5],[1,0.5]];portConstraint=eastwest;whiteSpace=wrap;html=1;" vertex="1" parent="udjICKNET5VibKl9sjoU-21">
          <mxGeometry y="160" width="140" height="26" as="geometry" />
        </mxCell>
        <mxCell id="udjICKNET5VibKl9sjoU-25" value="Reviews" style="swimlane;fontStyle=0;childLayout=stackLayout;horizontal=1;startSize=26;fillColor=none;horizontalStack=0;resizeParent=1;resizeParentMax=0;resizeLast=0;collapsible=1;marginBottom=0;whiteSpace=wrap;html=1;" vertex="1" parent="1">
          <mxGeometry x="980" y="60" width="140" height="238" as="geometry" />
        </mxCell>
        <mxCell id="udjICKNET5VibKl9sjoU-26" value="review_id (clé primaire)" style="text;strokeColor=none;fillColor=none;align=left;verticalAlign=top;spacingLeft=4;spacingRight=4;overflow=hidden;rotatable=0;points=[[0,0.5],[1,0.5]];portConstraint=eastwest;whiteSpace=wrap;html=1;" vertex="1" parent="udjICKNET5VibKl9sjoU-25">
          <mxGeometry y="26" width="140" height="24" as="geometry" />
        </mxCell>
        <mxCell id="udjICKNET5VibKl9sjoU-27" value="product_id (clé étrangère liée à la table Products)" style="text;strokeColor=none;fillColor=none;align=left;verticalAlign=top;spacingLeft=4;spacingRight=4;overflow=hidden;rotatable=0;points=[[0,0.5],[1,0.5]];portConstraint=eastwest;whiteSpace=wrap;html=1;" vertex="1" parent="udjICKNET5VibKl9sjoU-25">
          <mxGeometry y="50" width="140" height="60" as="geometry" />
        </mxCell>
        <mxCell id="udjICKNET5VibKl9sjoU-28" value="user_id (clé étrangère liée à la table Users)" style="text;strokeColor=none;fillColor=none;align=left;verticalAlign=top;spacingLeft=4;spacingRight=4;overflow=hidden;rotatable=0;points=[[0,0.5],[1,0.5]];portConstraint=eastwest;whiteSpace=wrap;html=1;" vertex="1" parent="udjICKNET5VibKl9sjoU-25">
          <mxGeometry y="110" width="140" height="50" as="geometry" />
        </mxCell>
        <mxCell id="udjICKNET5VibKl9sjoU-72" value="rating" style="text;strokeColor=none;fillColor=none;align=left;verticalAlign=top;spacingLeft=4;spacingRight=4;overflow=hidden;rotatable=0;points=[[0,0.5],[1,0.5]];portConstraint=eastwest;whiteSpace=wrap;html=1;" vertex="1" parent="udjICKNET5VibKl9sjoU-25">
          <mxGeometry y="160" width="140" height="26" as="geometry" />
        </mxCell>
        <mxCell id="udjICKNET5VibKl9sjoU-73" value="comment" style="text;strokeColor=none;fillColor=none;align=left;verticalAlign=top;spacingLeft=4;spacingRight=4;overflow=hidden;rotatable=0;points=[[0,0.5],[1,0.5]];portConstraint=eastwest;whiteSpace=wrap;html=1;" vertex="1" parent="udjICKNET5VibKl9sjoU-25">
          <mxGeometry y="186" width="140" height="26" as="geometry" />
        </mxCell>
        <mxCell id="udjICKNET5VibKl9sjoU-74" value="review_date" style="text;strokeColor=none;fillColor=none;align=left;verticalAlign=top;spacingLeft=4;spacingRight=4;overflow=hidden;rotatable=0;points=[[0,0.5],[1,0.5]];portConstraint=eastwest;whiteSpace=wrap;html=1;" vertex="1" parent="udjICKNET5VibKl9sjoU-25">
          <mxGeometry y="212" width="140" height="26" as="geometry" />
        </mxCell>
        <mxCell id="udjICKNET5VibKl9sjoU-33" value="Promotions" style="swimlane;fontStyle=0;childLayout=stackLayout;horizontal=1;startSize=26;fillColor=none;horizontalStack=0;resizeParent=1;resizeParentMax=0;resizeLast=0;collapsible=1;marginBottom=0;whiteSpace=wrap;html=1;" vertex="1" parent="1">
          <mxGeometry x="1320" y="280" width="140" height="208" as="geometry" />
        </mxCell>
        <mxCell id="udjICKNET5VibKl9sjoU-34" value="promotion_id (clé primaire)" style="text;strokeColor=none;fillColor=none;align=left;verticalAlign=top;spacingLeft=4;spacingRight=4;overflow=hidden;rotatable=0;points=[[0,0.5],[1,0.5]];portConstraint=eastwest;whiteSpace=wrap;html=1;" vertex="1" parent="udjICKNET5VibKl9sjoU-33">
          <mxGeometry y="26" width="140" height="44" as="geometry" />
        </mxCell>
        <mxCell id="udjICKNET5VibKl9sjoU-35" value="product_id (clé étrangère liée à la table Products)" style="text;strokeColor=none;fillColor=none;align=left;verticalAlign=top;spacingLeft=4;spacingRight=4;overflow=hidden;rotatable=0;points=[[0,0.5],[1,0.5]];portConstraint=eastwest;whiteSpace=wrap;html=1;" vertex="1" parent="udjICKNET5VibKl9sjoU-33">
          <mxGeometry y="70" width="140" height="60" as="geometry" />
        </mxCell>
        <mxCell id="udjICKNET5VibKl9sjoU-36" value="discount_percentage" style="text;strokeColor=none;fillColor=none;align=left;verticalAlign=top;spacingLeft=4;spacingRight=4;overflow=hidden;rotatable=0;points=[[0,0.5],[1,0.5]];portConstraint=eastwest;whiteSpace=wrap;html=1;" vertex="1" parent="udjICKNET5VibKl9sjoU-33">
          <mxGeometry y="130" width="140" height="26" as="geometry" />
        </mxCell>
        <mxCell id="udjICKNET5VibKl9sjoU-75" value="start_date" style="text;strokeColor=none;fillColor=none;align=left;verticalAlign=top;spacingLeft=4;spacingRight=4;overflow=hidden;rotatable=0;points=[[0,0.5],[1,0.5]];portConstraint=eastwest;whiteSpace=wrap;html=1;" vertex="1" parent="udjICKNET5VibKl9sjoU-33">
          <mxGeometry y="156" width="140" height="26" as="geometry" />
        </mxCell>
        <mxCell id="udjICKNET5VibKl9sjoU-76" value="end_date" style="text;strokeColor=none;fillColor=none;align=left;verticalAlign=top;spacingLeft=4;spacingRight=4;overflow=hidden;rotatable=0;points=[[0,0.5],[1,0.5]];portConstraint=eastwest;whiteSpace=wrap;html=1;" vertex="1" parent="udjICKNET5VibKl9sjoU-33">
          <mxGeometry y="182" width="140" height="26" as="geometry" />
        </mxCell>
        <mxCell id="udjICKNET5VibKl9sjoU-37" value="ProductPhotos" style="swimlane;fontStyle=0;childLayout=stackLayout;horizontal=1;startSize=26;fillColor=none;horizontalStack=0;resizeParent=1;resizeParentMax=0;resizeLast=0;collapsible=1;marginBottom=0;whiteSpace=wrap;html=1;" vertex="1" parent="1">
          <mxGeometry x="1370" y="560" width="140" height="190" as="geometry" />
        </mxCell>
        <mxCell id="udjICKNET5VibKl9sjoU-38" value="photo_id (clé primaire)" style="text;strokeColor=none;fillColor=none;align=left;verticalAlign=top;spacingLeft=4;spacingRight=4;overflow=hidden;rotatable=0;points=[[0,0.5],[1,0.5]];portConstraint=eastwest;whiteSpace=wrap;html=1;" vertex="1" parent="udjICKNET5VibKl9sjoU-37">
          <mxGeometry y="26" width="140" height="26" as="geometry" />
        </mxCell>
        <mxCell id="udjICKNET5VibKl9sjoU-39" value="product_id (clé étrangère liée à la table Products)" style="text;strokeColor=none;fillColor=none;align=left;verticalAlign=top;spacingLeft=4;spacingRight=4;overflow=hidden;rotatable=0;points=[[0,0.5],[1,0.5]];portConstraint=eastwest;whiteSpace=wrap;html=1;" vertex="1" parent="udjICKNET5VibKl9sjoU-37">
          <mxGeometry y="52" width="140" height="58" as="geometry" />
        </mxCell>
        <mxCell id="udjICKNET5VibKl9sjoU-40" value="photo_url" style="text;strokeColor=none;fillColor=none;align=left;verticalAlign=top;spacingLeft=4;spacingRight=4;overflow=hidden;rotatable=0;points=[[0,0.5],[1,0.5]];portConstraint=eastwest;whiteSpace=wrap;html=1;" vertex="1" parent="udjICKNET5VibKl9sjoU-37">
          <mxGeometry y="110" width="140" height="26" as="geometry" />
        </mxCell>
        <mxCell id="udjICKNET5VibKl9sjoU-77" value="is_primary (indicateur 0/1 pour définir si la photo est la principale)" style="text;strokeColor=none;fillColor=none;align=left;verticalAlign=top;spacingLeft=4;spacingRight=4;overflow=hidden;rotatable=0;points=[[0,0.5],[1,0.5]];portConstraint=eastwest;whiteSpace=wrap;html=1;" vertex="1" parent="udjICKNET5VibKl9sjoU-37">
          <mxGeometry y="136" width="140" height="54" as="geometry" />
        </mxCell>
        <mxCell id="5tuQu0coQ0zNJ7V1fZhX-6" style="edgeStyle=orthogonalEdgeStyle;rounded=0;orthogonalLoop=1;jettySize=auto;html=1;exitX=0;exitY=0.5;exitDx=0;exitDy=0;entryX=0.25;entryY=0;entryDx=0;entryDy=0;" edge="1" parent="1" source="udjICKNET5VibKl9sjoU-11" target="mc_QEWwiL3FcUxrlVgAe-5">
          <mxGeometry relative="1" as="geometry" />
        </mxCell>
        <mxCell id="5tuQu0coQ0zNJ7V1fZhX-7" style="edgeStyle=orthogonalEdgeStyle;rounded=0;orthogonalLoop=1;jettySize=auto;html=1;exitX=0;exitY=0.5;exitDx=0;exitDy=0;entryX=0.5;entryY=0;entryDx=0;entryDy=0;" edge="1" parent="1" source="udjICKNET5VibKl9sjoU-23" target="mc_QEWwiL3FcUxrlVgAe-5">
          <mxGeometry relative="1" as="geometry" />
        </mxCell>
        <mxCell id="5tuQu0coQ0zNJ7V1fZhX-8" style="edgeStyle=orthogonalEdgeStyle;rounded=0;orthogonalLoop=1;jettySize=auto;html=1;exitX=0;exitY=0.5;exitDx=0;exitDy=0;entryX=0.75;entryY=0;entryDx=0;entryDy=0;" edge="1" parent="1" source="udjICKNET5VibKl9sjoU-28" target="mc_QEWwiL3FcUxrlVgAe-5">
          <mxGeometry relative="1" as="geometry" />
        </mxCell>
        <mxCell id="5tuQu0coQ0zNJ7V1fZhX-16" style="edgeStyle=orthogonalEdgeStyle;rounded=0;orthogonalLoop=1;jettySize=auto;html=1;exitX=1;exitY=0.5;exitDx=0;exitDy=0;entryX=0.5;entryY=0;entryDx=0;entryDy=0;" edge="1" parent="1" source="udjICKNET5VibKl9sjoU-54" target="udjICKNET5VibKl9sjoU-1">
          <mxGeometry relative="1" as="geometry" />
        </mxCell>
        <mxCell id="5tuQu0coQ0zNJ7V1fZhX-19" style="edgeStyle=orthogonalEdgeStyle;rounded=0;orthogonalLoop=1;jettySize=auto;html=1;exitX=1;exitY=0.5;exitDx=0;exitDy=0;entryX=0;entryY=0;entryDx=0;entryDy=0;" edge="1" parent="1" source="udjICKNET5VibKl9sjoU-16" target="mc_QEWwiL3FcUxrlVgAe-1">
          <mxGeometry relative="1" as="geometry" />
        </mxCell>
        <mxCell id="5tuQu0coQ0zNJ7V1fZhX-20" style="edgeStyle=orthogonalEdgeStyle;rounded=0;orthogonalLoop=1;jettySize=auto;html=1;exitX=0;exitY=0.5;exitDx=0;exitDy=0;entryX=0.25;entryY=0;entryDx=0;entryDy=0;" edge="1" parent="1" source="udjICKNET5VibKl9sjoU-24" target="mc_QEWwiL3FcUxrlVgAe-1">
          <mxGeometry relative="1" as="geometry" />
        </mxCell>
        <mxCell id="5tuQu0coQ0zNJ7V1fZhX-22" style="edgeStyle=orthogonalEdgeStyle;rounded=0;orthogonalLoop=1;jettySize=auto;html=1;exitX=0;exitY=0.5;exitDx=0;exitDy=0;entryX=0.75;entryY=0;entryDx=0;entryDy=0;" edge="1" parent="1" source="udjICKNET5VibKl9sjoU-35" target="mc_QEWwiL3FcUxrlVgAe-1">
          <mxGeometry relative="1" as="geometry" />
        </mxCell>
        <mxCell id="5tuQu0coQ0zNJ7V1fZhX-23" style="edgeStyle=orthogonalEdgeStyle;rounded=0;orthogonalLoop=1;jettySize=auto;html=1;exitX=0;exitY=0.5;exitDx=0;exitDy=0;entryX=1;entryY=0;entryDx=0;entryDy=0;" edge="1" parent="1" source="udjICKNET5VibKl9sjoU-39" target="mc_QEWwiL3FcUxrlVgAe-1">
          <mxGeometry relative="1" as="geometry" />
        </mxCell>
        <mxCell id="5tuQu0coQ0zNJ7V1fZhX-27" style="edgeStyle=orthogonalEdgeStyle;rounded=0;orthogonalLoop=1;jettySize=auto;html=1;exitX=1;exitY=0.5;exitDx=0;exitDy=0;entryX=0.25;entryY=0;entryDx=0;entryDy=0;" edge="1" parent="1" source="udjICKNET5VibKl9sjoU-19" target="udjICKNET5VibKl9sjoU-9">
          <mxGeometry relative="1" as="geometry" />
        </mxCell>
        <mxCell id="5tuQu0coQ0zNJ7V1fZhX-28" style="edgeStyle=orthogonalEdgeStyle;rounded=0;orthogonalLoop=1;jettySize=auto;html=1;exitX=1;exitY=0.5;exitDx=0;exitDy=0;entryX=0.5;entryY=0;entryDx=0;entryDy=0;" edge="1" parent="1" source="udjICKNET5VibKl9sjoU-27" target="mc_QEWwiL3FcUxrlVgAe-1">
          <mxGeometry relative="1" as="geometry" />
        </mxCell>
        <mxCell id="5tuQu0coQ0zNJ7V1fZhX-29" style="edgeStyle=orthogonalEdgeStyle;rounded=0;orthogonalLoop=1;jettySize=auto;html=1;exitX=0;exitY=0.5;exitDx=0;exitDy=0;" edge="1" parent="1" source="udjICKNET5VibKl9sjoU-62" target="udjICKNET5VibKl9sjoU-5">
          <mxGeometry relative="1" as="geometry" />
        </mxCell>
        <mxCell id="5tuQu0coQ0zNJ7V1fZhX-30" style="edgeStyle=orthogonalEdgeStyle;rounded=0;orthogonalLoop=1;jettySize=auto;html=1;exitX=1;exitY=0.5;exitDx=0;exitDy=0;entryX=0.75;entryY=0;entryDx=0;entryDy=0;" edge="1" parent="1" source="udjICKNET5VibKl9sjoU-15" target="udjICKNET5VibKl9sjoU-9">
          <mxGeometry relative="1" as="geometry" />
        </mxCell>
      </root>
    </mxGraphModel>
  </diagram>
</mxfile>
